<svg width="657.9px" height="122px" xmlns="http://www.w3.org/2000/svg" viewBox="-78.94687499999998 14 657.89375 122" style="background: none" preserveAspectRatio="xMidYMid"><defs><linearGradient id="editing-shiny-gradient" x1="0.04322727117869957" x2="0.9567727288213004" y1="0.2966316784620999" y2="0.7033683215379001" gradientUnits="objectBoundingBox"><stop offset="0" stop-color="#689cc5"></stop><stop offset="0.5" stop-color="#5e6fa3"></stop><stop offset="1" stop-color="#3b4368"></stop></linearGradient><linearGradient id="editing-shiny-gradient2" x1="0" x2="0" y1="0" y2="1"><stop offset="0.2" stop-color="#ffffff" stop-opacity="0.8"></stop><stop offset="0.8" stop-color="#ffffff" stop-opacity="0"></stop></linearGradient><filter id="editing-shiny2" x="-100%" y="-100%" width="300%" height="300%"><feMorphology operator="erode" radius="2"></feMorphology></filter><filter id="editing-shiny" x="-100%" y="-100%" width="300%" height="300%"><feFlood flood-color="#fff" result="flood"></feFlood><feConvolveMatrix in="SourceGraphic" result="conv" order="8,8" divisor="1" kernelMatrix="0 0 0 0 0 0 0 0 0 0 0 1 1 0 0 0 0 0 0 1 1 0 0 0 0 0 1 0 0 1 0 0 0 0 1 0 0 1 0 0 0 1 0 0 0 0 1 0 0 1 1 0 0 1 1 0 0 0 0 1 1 0 0 0 "></feConvolveMatrix><feOffset dx="0" dy="4" in="conv" result="offset"></feOffset><feComposite operator="in" in="flood" in2="offset" result="comp"></feComposite><feGaussianBlur in="offset" stdDeviation="3" result="shadow"></feGaussianBlur><feColorMatrix in="shadow" type="matrix" values="0.7 0 0 0 0  0 0.7 0 0 0  0 0 0.7 0 0  0 0 0 0.3 0" result="dark-shadow"></feColorMatrix><feOffset dx="0" dy="4" in="dark-shadow" result="offset-shadow"></feOffset><feOffset dx="0" dy="2" in="conv" result="offset-2"></feOffset><feComposite operator="out" in="offset" in2="offset-2" result="edge-diff"></feComposite><feGaussianBlur in="edge-diff" stdDeviation="1" result="edge-blur"></feGaussianBlur><feColorMatrix in="edge-blur" result="edge-shadow" type="matrix" values="0 0 0 0 0  0 0 0 0 0  0 0 0 0 0  0 0 0 0.5 0"></feColorMatrix><feComposite operator="in" in="edge-shadow" in2="offset" result="edge-shadow-in"></feComposite><feOffset dx="0" dy="1" in="edge-shadow-in" result="edge-shadow-final"></feOffset><feMerge result="out"><feMergeNode in="offset-shadow"></feMergeNode><feMergeNode in="comp"></feMergeNode><feMergeNode in="edge-shadow-final"></feMergeNode><feMergeNode in="SourceGraphic"></feMergeNode></feMerge></filter></defs><g filter="url(#editing-shiny)"><g transform="translate(15.9,104.5)"><path d="M 14.3 0 L 0.4 0 L 8.5 -42.2 L 22.6 -42.2 L 14.3 0 Z M 70.1 1.3 L 70.1 1.3 L 70.1 1.3 Q 62.3 1.3 62.3 -4.7 L 62.3 -4.7 L 62.3 -4.7 Q 62.3 -7.4 63.5 -12.4 L 63.5 -12.4 L 63.5 -12.4 Q 64.6 -17.5 65 -19.6 L 65 -19.6 L 65 -19.6 Q 65.9 -24.3 65.9 -25.7 L 65.9 -25.7 L 65.9 -25.7 Q 65.9 -29 63.4 -29 L 63.4 -29 L 63.4 -29 Q 61.8 -29 60.3 -26.8 L 60.3 -26.8 L 60.3 -26.8 Q 58.8 -24.6 58 -20.2 L 58 -20.2 L 54.1 0 L 41.6 1.3 L 45.1 -16.1 L 45.1 -16.1 Q 45.6 -19 46.1 -22.3 L 46.1 -22.3 L 46.1 -22.3 Q 46.7 -25.5 46.7 -26.1 L 46.7 -26.1 L 46.7 -26.1 Q 46.7 -29 44.5 -29 L 44.5 -29 L 44.5 -29 Q 43 -29 41.4 -26.8 L 41.4 -26.8 L 41.4 -26.8 Q 39.8 -24.6 38.9 -20.2 L 38.9 -20.2 L 35 0 L 22.4 1.3 L 29.1 -32.6 L 39.5 -33.9 L 38.5 -27.5 L 38.5 -27.5 Q 40.1 -30.9 43.2 -32.4 L 43.2 -32.4 L 43.2 -32.4 Q 46.3 -33.9 51.1 -33.9 L 51.1 -33.9 L 51.1 -33.9 Q 53.8 -33.9 55.6 -32.6 L 55.6 -32.6 L 55.6 -32.6 Q 57.4 -31.2 58 -29.1 L 58 -29.1 L 58 -29.1 Q 59.1 -31.3 61.9 -32.6 L 61.9 -32.6 L 61.9 -32.6 Q 64.6 -33.9 68.1 -33.9 L 68.1 -33.9 L 68.1 -33.9 Q 71.5 -33.9 73.2 -33.2 L 73.2 -33.2 L 73.2 -33.2 Q 74.9 -32.5 75.9 -31.2 L 75.9 -31.2 L 75.9 -31.2 Q 77.6 -29 77.6 -24.9 L 77.6 -24.9 L 77.6 -24.9 Q 77.6 -20.9 75.9 -12.5 L 75.9 -12.5 L 75.9 -12.5 Q 75 -8.4 75 -6.9 L 75 -6.9 L 75 -6.9 Q 75 -5.4 75.9 -4.5 L 75.9 -4.5 L 75.9 -4.5 Q 76.7 -3.6 78 -3.5 L 78 -3.5 L 78 -3.5 Q 77.4 -1.3 75.2 0 L 75.2 0 L 75.2 0 Q 73 1.3 70.1 1.3 Z M 85.7 -1.9 L 85.7 -1.9 L 85.7 -1.9 Q 84.2 -3.6 83.5 -6.2 L 83.5 -6.2 L 83.5 -6.2 Q 82.9 -8.8 82.9 -13.1 L 82.9 -13.1 L 82.9 -13.1 Q 82.9 -17.4 84.3 -21.3 L 84.3 -21.3 L 84.3 -21.3 Q 85.8 -25.2 88.5 -28 L 88.5 -28 L 88.5 -28 Q 94 -33.9 103.1 -33.9 L 103.1 -33.9 L 103.1 -33.9 Q 106.4 -33.9 108.7 -32.8 L 108.7 -32.8 L 119.7 -33.9 L 114.9 -9 L 114.9 -9 Q 114.8 -8.2 114.8 -6.8 L 114.8 -6.8 L 114.8 -6.8 Q 114.8 -5.4 115.6 -4.5 L 115.6 -4.5 L 115.6 -4.5 Q 116.5 -3.6 117.8 -3.5 L 117.8 -3.5 L 117.8 -3.5 Q 117.1 -1.3 114.8 0 L 114.8 0 L 114.8 0 Q 112.5 1.3 109.8 1.3 L 109.8 1.3 L 109.8 1.3 Q 107.2 1.3 105.4 0.3 L 105.4 0.3 L 105.4 0.3 Q 103.7 -0.7 103.2 -2.4 L 103.2 -2.4 L 103.2 -2.4 Q 102.1 -0.8 100 0.3 L 100 0.3 L 100 0.3 Q 97.8 1.3 94.9 1.3 L 94.9 1.3 L 94.9 1.3 Q 92 1.3 89.6 0.5 L 89.6 0.5 L 89.6 0.5 Q 87.2 -0.3 85.7 -1.9 Z M 99.2 -27.9 L 99.2 -27.9 L 99.2 -27.9 Q 98.5 -26.8 97.9 -24.8 L 97.9 -24.8 L 97.9 -24.8 Q 97.2 -22.9 96.2 -17.6 L 96.2 -17.6 L 96.2 -17.6 Q 95.1 -12.4 95.1 -8.7 L 95.1 -8.7 L 95.1 -8.7 Q 95.1 -5 95.7 -3.9 L 95.7 -3.9 L 95.7 -3.9 Q 96.3 -2.8 97.3 -2.8 L 97.3 -2.8 L 97.3 -2.8 Q 99.3 -2.8 100.8 -4.8 L 100.8 -4.8 L 100.8 -4.8 Q 102.3 -6.7 102.9 -10.2 L 102.9 -10.2 L 106.3 -28.9 L 106.3 -28.9 Q 105 -30.1 103.4 -30.1 L 103.4 -30.1 L 103.4 -30.1 Q 101.8 -30.1 100.9 -29.6 L 100.9 -29.6 L 100.9 -29.6 Q 100 -29.1 99.2 -27.9 Z M 127.4 -26.8 L 127.4 -26.8 L 127.4 -26.8 Q 129.6 -29.8 132.9 -31.9 L 132.9 -31.9 L 132.9 -31.9 Q 136.2 -33.9 140.2 -33.9 L 140.2 -33.9 L 140.2 -33.9 Q 144.3 -33.9 146.2 -32.6 L 146.2 -32.6 L 158.7 -33.9 L 154.4 -9.3 L 154.4 -9.3 Q 152.1 3.2 147.4 8.1 L 147.4 8.1 L 147.4 8.1 Q 142.8 12.8 134 12.8 L 134 12.8 L 134 12.8 Q 127.3 12.8 123.5 10.7 L 123.5 10.7 L 123.5 10.7 Q 119.6 8.6 119.6 5.1 L 119.6 5.1 L 119.6 5.1 Q 119.6 2.4 121.6 0.9 L 121.6 0.9 L 121.6 0.9 Q 123.6 -0.6 126.7 -0.6 L 126.7 -0.6 L 126.7 -0.6 Q 129.3 -0.6 131.4 0.6 L 131.4 0.6 L 131.4 0.6 Q 132.6 1.3 133.2 2.2 L 133.2 2.2 L 133.2 2.2 Q 131.7 3.5 131.7 5.6 L 131.7 5.6 L 131.7 5.6 Q 131.7 8.3 134.3 8.3 L 134.3 8.3 L 134.3 8.3 Q 138.6 8.3 141 -1.8 L 141 -1.8 L 141 -1.8 Q 141.7 -4.5 142.3 -7.3 L 142.3 -7.3 L 142.3 -7.3 Q 139.4 -3.8 132.9 -3.8 L 132.9 -3.8 L 132.9 -3.8 Q 128.3 -3.8 125.7 -6 L 125.7 -6 L 125.7 -6 Q 123.1 -8.1 123.1 -13.3 L 123.1 -13.3 L 123.1 -13.3 Q 123.1 -16.4 124.2 -20.1 L 124.2 -20.1 L 124.2 -20.1 Q 125.3 -23.7 127.4 -26.8 Z M 135.7 -13.1 L 135.7 -13.1 L 135.7 -13.1 Q 135.7 -8.7 138 -8.7 L 138 -8.7 L 138 -8.7 Q 139.5 -8.7 141 -10.4 L 141 -10.4 L 141 -10.4 Q 142.1 -11.7 142.6 -13.7 L 142.6 -13.7 L 145.9 -30.1 L 145.9 -30.1 Q 145.5 -30.2 145.2 -30.3 L 145.2 -30.3 L 145.2 -30.3 Q 144.6 -30.6 143.7 -30.6 L 143.7 -30.6 L 143.7 -30.6 Q 139.8 -30.6 137.5 -24.2 L 137.5 -24.2 L 137.5 -24.2 Q 135.7 -19.2 135.7 -13.1 Z M 187.1 -10.8 L 187.1 -10.8 L 187.1 -10.8 Q 188.7 -9.7 188.7 -7.3 L 188.7 -7.3 L 188.7 -7.3 Q 188.7 -4.9 187.5 -3.4 L 187.5 -3.4 L 187.5 -3.4 Q 186.3 -1.9 184.3 -0.8 L 184.3 -0.8 L 184.3 -0.8 Q 180.2 1.3 175.8 1.3 L 175.8 1.3 L 175.8 1.3 Q 171.4 1.3 168.8 0.3 L 168.8 0.3 L 168.8 0.3 Q 166.2 -0.6 164.5 -2.4 L 164.5 -2.4 L 164.5 -2.4 Q 161.1 -5.8 161.1 -12 L 161.1 -12 L 161.1 -12 Q 161.1 -21.7 166.3 -27.6 L 166.3 -27.6 L 166.3 -27.6 Q 172 -33.9 181.8 -33.9 L 181.8 -33.9 L 181.8 -33.9 Q 187.8 -33.9 190.8 -31.4 L 190.8 -31.4 L 190.8 -31.4 Q 193.1 -29.4 193.1 -26.3 L 193.1 -26.3 L 193.1 -26.3 Q 193.1 -15 173.6 -15 L 173.6 -15 L 173.6 -15 Q 173.4 -13.4 173.4 -12 L 173.4 -12 L 173.4 -12 Q 173.4 -9 174.7 -7.9 L 174.7 -7.9 L 174.7 -7.9 Q 176 -6.8 178.4 -6.8 L 178.4 -6.8 L 178.4 -6.8 Q 180.9 -6.8 183.5 -7.9 L 183.5 -7.9 L 183.5 -7.9 Q 186.1 -9 187.1 -10.8 Z M 174.1 -17.8 L 174.1 -17.8 L 174.1 -17.8 Q 178.6 -17.8 181.3 -20.6 L 181.3 -20.6 L 181.3 -20.6 Q 183.9 -23.3 183.9 -27.6 L 183.9 -27.6 L 183.9 -27.6 Q 183.9 -29.1 183.3 -29.9 L 183.3 -29.9 L 183.3 -29.9 Q 182.8 -30.7 181.7 -30.7 L 181.7 -30.7 L 181.7 -30.7 Q 180.6 -30.7 179.7 -30.2 L 179.7 -30.2 L 179.7 -30.2 Q 178.8 -29.8 177.8 -28.4 L 177.8 -28.4 L 177.8 -28.4 Q 175.4 -25.2 174.1 -17.8 Z M 214.4 -22.5 L 214.4 -22.5 L 214.4 -22.5 Q 215.3 -24.8 215.3 -26.9 L 215.3 -26.9 L 215.3 -26.9 Q 215.3 -30.7 212.2 -30.7 L 212.2 -30.7 L 212.2 -30.7 Q 210.6 -30.7 209.3 -29.2 L 209.3 -29.2 L 209.3 -29.2 Q 208 -27.8 208 -26 L 208 -26 L 208 -26 Q 208 -24.7 209 -23.7 L 209 -23.7 L 209 -23.7 Q 210.5 -22.3 214.3 -20 L 214.3 -20 L 214.3 -20 Q 218.1 -17.7 219.5 -15.8 L 219.5 -15.8 L 219.5 -15.8 Q 220.9 -13.9 220.9 -11.3 L 220.9 -11.3 L 220.9 -11.3 Q 220.9 -8.7 219.7 -6.3 L 219.7 -6.3 L 219.7 -6.3 Q 218.4 -4 216.2 -2.3 L 216.2 -2.3 L 216.2 -2.3 Q 211.4 1.3 203.7 1.3 L 203.7 1.3 L 203.7 1.3 Q 199.6 1.3 196.3 -0.9 L 196.3 -0.9 L 196.3 -0.9 Q 193.2 -3 193.2 -5.5 L 193.2 -5.5 L 193.2 -5.5 Q 193.2 -8 195 -9.5 L 195 -9.5 L 195 -9.5 Q 196.8 -10.9 199.5 -10.9 L 199.5 -10.9 L 199.5 -10.9 Q 202.2 -10.9 203.8 -9.9 L 203.8 -9.9 L 203.8 -9.9 Q 203 -7.8 203 -6.4 L 203 -6.4 L 203 -6.4 Q 203 -2.2 206.6 -2.2 L 206.6 -2.2 L 206.6 -2.2 Q 208.1 -2.2 209.2 -3.1 L 209.2 -3.1 L 209.2 -3.1 Q 210.2 -4.1 210.2 -5.8 L 210.2 -5.8 L 210.2 -5.8 Q 210.2 -9 204.7 -12.5 L 204.7 -12.5 L 204.7 -12.5 Q 200.2 -15.4 199.2 -16.6 L 199.2 -16.6 L 199.2 -16.6 Q 197.4 -18.6 197.4 -21.2 L 197.4 -21.2 L 197.4 -21.2 Q 197.4 -23.7 198.7 -26.2 L 198.7 -26.2 L 198.7 -26.2 Q 199.9 -28.6 202.1 -30.3 L 202.1 -30.3 L 202.1 -30.3 Q 206.8 -33.9 214.9 -33.9 L 214.9 -33.9 L 214.9 -33.9 Q 219.1 -33.9 221.5 -32.3 L 221.5 -32.3 L 221.5 -32.3 Q 224 -30.6 224 -27.8 L 224 -27.8 L 224 -27.8 Q 224 -25 222.3 -23.4 L 222.3 -23.4 L 222.3 -23.4 Q 220.6 -21.8 217.5 -21.8 L 217.5 -21.8 L 217.5 -21.8 Q 215.4 -21.8 214.4 -22.5 Z M 265.5 -20.6 L 278.4 -21.8 L 278.4 -21.8 Q 273.8 -11.7 273.8 0.1 L 273.8 0.1 L 273.8 0.1 Q 272.1 1.3 269.5 1.3 L 269.5 1.3 L 269.5 1.3 Q 267 1.3 265.4 0.1 L 265.4 0.1 L 265.4 0.1 Q 263.8 -1.1 263.5 -2.3 L 263.5 -2.3 L 263.5 -2.3 Q 261.9 -0.6 259.3 0.3 L 259.3 0.3 L 259.3 0.3 Q 256.7 1.3 253.9 1.3 L 253.9 1.3 L 253.9 1.3 Q 251.2 1.3 248.8 0.4 L 248.8 0.4 L 248.8 0.4 Q 246.4 -0.5 244.5 -2.5 L 244.5 -2.5 L 244.5 -2.5 Q 240.4 -6.8 240.4 -15.1 L 240.4 -15.1 L 240.4 -15.1 Q 240.4 -27.9 247.3 -35.6 L 247.3 -35.6 L 247.3 -35.6 Q 254.3 -43.5 266.8 -43.5 L 266.8 -43.5 L 266.8 -43.5 Q 275.5 -43.5 278.5 -39 L 278.5 -39 L 278.5 -39 Q 279.5 -37.6 279.5 -35.9 L 279.5 -35.9 L 279.5 -35.9 Q 279.5 -34.2 278.8 -32.8 L 278.8 -32.8 L 278.8 -32.8 Q 278 -31.4 276.9 -30.2 L 276.9 -30.2 L 276.9 -30.2 Q 274.1 -27.6 270.7 -27.6 L 270.7 -27.6 L 270.7 -27.6 Q 269.4 -27.6 268.1 -28.1 L 268.1 -28.1 L 268.1 -28.1 Q 268.4 -30 268.4 -32.3 L 268.4 -32.3 L 268.4 -32.3 Q 268.4 -34.5 268.2 -35.5 L 268.2 -35.5 L 268.2 -35.5 Q 268 -36.5 267.6 -37.4 L 267.6 -37.4 L 267.6 -37.4 Q 266.8 -39.1 265 -39.1 L 265 -39.1 L 265 -39.1 Q 263.2 -39.1 261.1 -37.1 L 261.1 -37.1 L 261.1 -37.1 Q 259.1 -35.2 257.5 -32 L 257.5 -32 L 257.5 -32 Q 254 -24.8 254 -16.2 L 254 -16.2 L 254 -16.2 Q 254 -12.2 255.6 -9.4 L 255.6 -9.4 L 255.6 -9.4 Q 257.2 -6.3 260.2 -6.3 L 260.2 -6.3 L 260.2 -6.3 Q 261.2 -6.3 262.1 -6.8 L 262.1 -6.8 L 262.1 -6.8 Q 263 -7.4 263.4 -7.7 L 263.4 -7.7 L 265.5 -20.6 Z M 284.3 -1.9 L 284.3 -1.9 L 284.3 -1.9 Q 282.8 -3.6 282.1 -6.2 L 282.1 -6.2 L 282.1 -6.2 Q 281.5 -8.8 281.5 -13.1 L 281.5 -13.1 L 281.5 -13.1 Q 281.5 -17.4 282.9 -21.3 L 282.9 -21.3 L 282.9 -21.3 Q 284.4 -25.2 287.1 -28 L 287.1 -28 L 287.1 -28 Q 292.6 -33.9 301.7 -33.9 L 301.7 -33.9 L 301.7 -33.9 Q 305 -33.9 307.3 -32.8 L 307.3 -32.8 L 318.3 -33.9 L 313.5 -9 L 313.5 -9 Q 313.3 -8.2 313.3 -6.8 L 313.3 -6.8 L 313.3 -6.8 Q 313.3 -5.4 314.2 -4.5 L 314.2 -4.5 L 314.2 -4.5 Q 315.1 -3.6 316.4 -3.5 L 316.4 -3.5 L 316.4 -3.5 Q 315.7 -1.3 313.4 0 L 313.4 0 L 313.4 0 Q 311 1.3 308.4 1.3 L 308.4 1.3 L 308.4 1.3 Q 305.8 1.3 304 0.3 L 304 0.3 L 304 0.3 Q 302.3 -0.7 301.8 -2.4 L 301.8 -2.4 L 301.8 -2.4 Q 300.7 -0.8 298.6 0.3 L 298.6 0.3 L 298.6 0.3 Q 296.4 1.3 293.5 1.3 L 293.5 1.3 L 293.5 1.3 Q 290.6 1.3 288.2 0.5 L 288.2 0.5 L 288.2 0.5 Q 285.8 -0.3 284.3 -1.9 Z M 297.8 -27.9 L 297.8 -27.9 L 297.8 -27.9 Q 297.1 -26.8 296.4 -24.8 L 296.4 -24.8 L 296.4 -24.8 Q 295.8 -22.9 294.8 -17.6 L 294.8 -17.6 L 294.8 -17.6 Q 293.7 -12.4 293.7 -8.7 L 293.7 -8.7 L 293.7 -8.7 Q 293.7 -5 294.3 -3.9 L 294.3 -3.9 L 294.3 -3.9 Q 294.9 -2.8 295.9 -2.8 L 295.9 -2.8 L 295.9 -2.8 Q 297.9 -2.8 299.4 -4.8 L 299.4 -4.8 L 299.4 -4.8 Q 300.9 -6.7 301.5 -10.2 L 301.5 -10.2 L 304.9 -28.9 L 304.9 -28.9 Q 303.6 -30.1 302 -30.1 L 302 -30.1 L 302 -30.1 Q 300.4 -30.1 299.5 -29.6 L 299.5 -29.6 L 299.5 -29.6 Q 298.6 -29.1 297.8 -27.9 Z M 337 -3.5 L 337 -3.5 L 337 -3.5 Q 335 1.3 328.7 1.3 L 328.7 1.3 L 328.7 1.3 Q 325.5 1.3 323.5 -1 L 323.5 -1 L 323.5 -1 Q 321.8 -2.8 321.8 -4.9 L 321.8 -4.9 L 321.8 -4.9 Q 321.8 -9.7 324 -20.2 L 324 -20.2 L 328.7 -44.8 L 341.7 -46.1 L 335.5 -13.7 L 335.5 -13.7 Q 334.4 -9 334.4 -7.3 L 334.4 -7.3 L 334.4 -7.3 Q 334.4 -3.6 337 -3.5 Z M 357.8 -3.5 L 357.8 -3.5 L 357.8 -3.5 Q 355.8 1.3 349.4 1.3 L 349.4 1.3 L 349.4 1.3 Q 346.2 1.3 344.2 -1 L 344.2 -1 L 344.2 -1 Q 342.5 -2.8 342.5 -4.9 L 342.5 -4.9 L 342.5 -4.9 Q 342.5 -9.7 344.8 -20.2 L 344.8 -20.2 L 349.4 -44.8 L 362.4 -46.1 L 356.2 -13.7 L 356.2 -13.7 Q 355.1 -9 355.1 -7.3 L 355.1 -7.3 L 355.1 -7.3 Q 355.1 -3.6 357.8 -3.5 Z M 389.1 -10.8 L 389.1 -10.8 L 389.1 -10.8 Q 390.7 -9.7 390.7 -7.3 L 390.7 -7.3 L 390.7 -7.3 Q 390.7 -4.9 389.5 -3.4 L 389.5 -3.4 L 389.5 -3.4 Q 388.3 -1.9 386.3 -0.8 L 386.3 -0.8 L 386.3 -0.8 Q 382.2 1.3 377.8 1.3 L 377.8 1.3 L 377.8 1.3 Q 373.4 1.3 370.8 0.3 L 370.8 0.3 L 370.8 0.3 Q 368.2 -0.6 366.5 -2.4 L 366.5 -2.4 L 366.5 -2.4 Q 363.1 -5.8 363.1 -12 L 363.1 -12 L 363.1 -12 Q 363.1 -21.7 368.3 -27.6 L 368.3 -27.6 L 368.3 -27.6 Q 373.9 -33.9 383.7 -33.9 L 383.7 -33.9 L 383.7 -33.9 Q 389.8 -33.9 392.8 -31.4 L 392.8 -31.4 L 392.8 -31.4 Q 395.1 -29.4 395.1 -26.3 L 395.1 -26.3 L 395.1 -26.3 Q 395.1 -15 375.6 -15 L 375.6 -15 L 375.6 -15 Q 375.4 -13.4 375.4 -12 L 375.4 -12 L 375.4 -12 Q 375.4 -9 376.7 -7.9 L 376.7 -7.9 L 376.7 -7.9 Q 378 -6.8 380.4 -6.8 L 380.4 -6.8 L 380.4 -6.8 Q 382.9 -6.8 385.4 -7.9 L 385.4 -7.9 L 385.4 -7.9 Q 388 -9 389.1 -10.8 Z M 376.1 -17.8 L 376.1 -17.8 L 376.1 -17.8 Q 380.6 -17.8 383.2 -20.6 L 383.2 -20.6 L 383.2 -20.6 Q 385.9 -23.3 385.9 -27.6 L 385.9 -27.6 L 385.9 -27.6 Q 385.9 -29.1 385.3 -29.9 L 385.3 -29.9 L 385.3 -29.9 Q 384.8 -30.7 383.7 -30.7 L 383.7 -30.7 L 383.7 -30.7 Q 382.6 -30.7 381.7 -30.2 L 381.7 -30.2 L 381.7 -30.2 Q 380.7 -29.8 379.8 -28.4 L 379.8 -28.4 L 379.8 -28.4 Q 377.4 -25.2 376.1 -17.8 Z M 417.3 -18 L 417.3 -18 L 417.3 -18 Q 419.6 -22.1 419.6 -26.2 L 419.6 -26.2 L 419.6 -26.2 Q 419.6 -29 417.6 -29 L 417.6 -29 L 417.6 -29 Q 416.1 -29 414.5 -26.4 L 414.5 -26.4 L 414.5 -26.4 Q 412.8 -23.7 412.3 -20.4 L 412.3 -20.4 L 409 0 L 395.7 1.3 L 402.2 -32.6 L 412.8 -33.9 L 411.6 -27.5 L 411.6 -27.5 Q 414.8 -33.9 421.8 -33.9 L 421.8 -33.9 L 421.8 -33.9 Q 425.5 -33.9 427.6 -32 L 427.6 -32 L 427.6 -32 Q 429.6 -30.1 429.6 -26.1 L 429.6 -26.1 L 429.6 -26.1 Q 429.6 -22.2 427 -19.7 L 427 -19.7 L 427 -19.7 Q 424.4 -17.2 420 -17.2 L 420 -17.2 L 420 -17.2 Q 418.1 -17.2 417.3 -18 Z M 450.9 -7.2 L 450.9 -7.2 L 450.9 -7.2 Q 447.6 -3.8 441.5 -3.8 L 441.5 -3.8 L 441.5 -3.8 Q 433.9 -3.8 432.3 -9.3 L 432.3 -9.3 L 432.3 -9.3 Q 431.8 -11 431.8 -12.9 L 431.8 -12.9 L 431.8 -12.9 Q 431.8 -14.7 432.2 -16.6 L 432.2 -16.6 L 435.2 -32.6 L 448.2 -33.9 L 444.7 -15.3 L 444.7 -15.3 Q 444.5 -14.5 444.4 -13.6 L 444.4 -13.6 L 444.4 -13.6 Q 444.2 -12.7 444.2 -11.7 L 444.2 -11.7 L 444.2 -11.7 Q 444.2 -10.8 444.5 -10.2 L 444.5 -10.2 L 444.5 -10.2 Q 444.8 -9.6 445.3 -9.2 L 445.3 -9.2 L 445.3 -9.2 Q 446 -8.7 447.4 -8.7 L 447.4 -8.7 L 447.4 -8.7 Q 448.8 -8.7 449.9 -10.4 L 449.9 -10.4 L 449.9 -10.4 Q 451.1 -12 451.7 -14.9 L 451.7 -14.9 L 455.2 -32.6 L 467.8 -33.9 L 463 -8.8 L 463 -8.8 Q 460.7 3.5 455.8 8.4 L 455.8 8.4 L 455.8 8.4 Q 453.3 10.9 450.1 11.9 L 450.1 11.9 L 450.1 11.9 Q 446.9 12.9 442.7 12.9 L 442.7 12.9 L 442.7 12.9 Q 436 12.9 432.1 10.8 L 432.1 10.8 L 432.1 10.8 Q 428.3 8.6 428.3 5.1 L 428.3 5.1 L 428.3 5.1 Q 428.3 2.5 430.3 1 L 430.3 1 L 430.3 1 Q 432.3 -0.5 435.3 -0.5 L 435.3 -0.5 L 435.3 -0.5 Q 438 -0.5 440.1 0.6 L 440.1 0.6 L 440.1 0.6 Q 441.3 1.3 441.9 2.2 L 441.9 2.2 L 441.9 2.2 Q 440.4 3.5 440.4 5.6 L 440.4 5.6 L 440.4 5.6 Q 440.4 8.4 442.9 8.4 L 442.9 8.4 L 442.9 8.4 Q 447.2 8.4 449.6 -1.3 L 449.6 -1.3 L 449.6 -1.3 Q 450.3 -4.2 450.9 -7.2 Z" fill="url(#editing-shiny-gradient)"></path></g></g><g filter="url(#editing-shiny2)"><g transform="translate(15.9,104.5)"><path d="M 14.3 0 L 0.4 0 L 8.5 -42.2 L 22.6 -42.2 L 14.3 0 Z M 70.1 1.3 L 70.1 1.3 L 70.1 1.3 Q 62.3 1.3 62.3 -4.7 L 62.3 -4.7 L 62.3 -4.7 Q 62.3 -7.4 63.5 -12.4 L 63.5 -12.4 L 63.5 -12.4 Q 64.6 -17.5 65 -19.6 L 65 -19.6 L 65 -19.6 Q 65.9 -24.3 65.9 -25.7 L 65.9 -25.7 L 65.9 -25.7 Q 65.9 -29 63.4 -29 L 63.4 -29 L 63.4 -29 Q 61.8 -29 60.3 -26.8 L 60.3 -26.8 L 60.3 -26.8 Q 58.8 -24.6 58 -20.2 L 58 -20.2 L 54.1 0 L 41.6 1.3 L 45.1 -16.1 L 45.1 -16.1 Q 45.6 -19 46.1 -22.3 L 46.1 -22.3 L 46.1 -22.3 Q 46.7 -25.5 46.7 -26.1 L 46.7 -26.1 L 46.7 -26.1 Q 46.7 -29 44.5 -29 L 44.5 -29 L 44.5 -29 Q 43 -29 41.4 -26.8 L 41.4 -26.8 L 41.4 -26.8 Q 39.8 -24.6 38.9 -20.2 L 38.9 -20.2 L 35 0 L 22.4 1.3 L 29.1 -32.6 L 39.5 -33.9 L 38.5 -27.5 L 38.5 -27.5 Q 40.1 -30.9 43.2 -32.4 L 43.2 -32.4 L 43.2 -32.4 Q 46.3 -33.9 51.1 -33.9 L 51.1 -33.9 L 51.1 -33.9 Q 53.8 -33.9 55.6 -32.6 L 55.6 -32.6 L 55.6 -32.6 Q 57.4 -31.2 58 -29.1 L 58 -29.1 L 58 -29.1 Q 59.1 -31.3 61.9 -32.6 L 61.9 -32.6 L 61.9 -32.6 Q 64.6 -33.9 68.1 -33.9 L 68.1 -33.9 L 68.1 -33.9 Q 71.5 -33.9 73.2 -33.2 L 73.2 -33.2 L 73.2 -33.2 Q 74.9 -32.5 75.9 -31.2 L 75.9 -31.2 L 75.9 -31.2 Q 77.6 -29 77.6 -24.9 L 77.6 -24.9 L 77.6 -24.9 Q 77.6 -20.9 75.9 -12.5 L 75.9 -12.5 L 75.9 -12.5 Q 75 -8.4 75 -6.9 L 75 -6.9 L 75 -6.9 Q 75 -5.4 75.9 -4.5 L 75.9 -4.5 L 75.9 -4.5 Q 76.7 -3.6 78 -3.5 L 78 -3.5 L 78 -3.5 Q 77.4 -1.3 75.2 0 L 75.2 0 L 75.2 0 Q 73 1.3 70.1 1.3 Z M 85.7 -1.9 L 85.7 -1.9 L 85.7 -1.9 Q 84.2 -3.6 83.5 -6.2 L 83.5 -6.2 L 83.5 -6.2 Q 82.9 -8.8 82.9 -13.1 L 82.9 -13.1 L 82.9 -13.1 Q 82.9 -17.4 84.3 -21.3 L 84.3 -21.3 L 84.3 -21.3 Q 85.8 -25.2 88.5 -28 L 88.5 -28 L 88.5 -28 Q 94 -33.9 103.1 -33.9 L 103.1 -33.9 L 103.1 -33.9 Q 106.4 -33.9 108.7 -32.8 L 108.7 -32.8 L 119.7 -33.9 L 114.9 -9 L 114.9 -9 Q 114.8 -8.2 114.8 -6.8 L 114.8 -6.8 L 114.8 -6.8 Q 114.8 -5.4 115.6 -4.5 L 115.6 -4.5 L 115.6 -4.5 Q 116.5 -3.6 117.8 -3.5 L 117.8 -3.5 L 117.8 -3.5 Q 117.1 -1.3 114.8 0 L 114.8 0 L 114.8 0 Q 112.5 1.3 109.8 1.3 L 109.8 1.3 L 109.8 1.3 Q 107.2 1.3 105.4 0.3 L 105.4 0.3 L 105.4 0.3 Q 103.7 -0.7 103.2 -2.4 L 103.2 -2.4 L 103.2 -2.4 Q 102.1 -0.8 100 0.3 L 100 0.3 L 100 0.3 Q 97.8 1.3 94.9 1.3 L 94.9 1.3 L 94.9 1.3 Q 92 1.3 89.6 0.5 L 89.6 0.5 L 89.6 0.5 Q 87.2 -0.3 85.7 -1.9 Z M 99.2 -27.9 L 99.2 -27.9 L 99.2 -27.9 Q 98.5 -26.8 97.9 -24.8 L 97.9 -24.8 L 97.9 -24.8 Q 97.2 -22.9 96.2 -17.6 L 96.2 -17.6 L 96.2 -17.6 Q 95.1 -12.4 95.1 -8.7 L 95.1 -8.7 L 95.1 -8.7 Q 95.1 -5 95.7 -3.9 L 95.7 -3.9 L 95.7 -3.9 Q 96.3 -2.8 97.3 -2.8 L 97.3 -2.8 L 97.3 -2.8 Q 99.3 -2.8 100.8 -4.8 L 100.8 -4.8 L 100.8 -4.8 Q 102.3 -6.7 102.9 -10.2 L 102.9 -10.2 L 106.3 -28.9 L 106.3 -28.9 Q 105 -30.1 103.4 -30.1 L 103.4 -30.1 L 103.4 -30.1 Q 101.8 -30.1 100.9 -29.6 L 100.9 -29.6 L 100.9 -29.6 Q 100 -29.1 99.2 -27.9 Z M 127.4 -26.8 L 127.4 -26.8 L 127.4 -26.8 Q 129.6 -29.8 132.9 -31.9 L 132.9 -31.9 L 132.9 -31.9 Q 136.2 -33.9 140.2 -33.9 L 140.2 -33.9 L 140.2 -33.9 Q 144.3 -33.9 146.2 -32.6 L 146.2 -32.6 L 158.7 -33.9 L 154.4 -9.3 L 154.4 -9.3 Q 152.1 3.2 147.4 8.1 L 147.4 8.1 L 147.4 8.1 Q 142.8 12.8 134 12.8 L 134 12.8 L 134 12.8 Q 127.3 12.8 123.5 10.7 L 123.5 10.7 L 123.5 10.7 Q 119.6 8.6 119.6 5.1 L 119.6 5.1 L 119.6 5.1 Q 119.6 2.4 121.6 0.9 L 121.6 0.9 L 121.6 0.9 Q 123.6 -0.6 126.7 -0.6 L 126.7 -0.6 L 126.7 -0.6 Q 129.3 -0.6 131.4 0.6 L 131.4 0.6 L 131.4 0.6 Q 132.6 1.3 133.2 2.2 L 133.2 2.2 L 133.2 2.2 Q 131.7 3.5 131.7 5.6 L 131.7 5.6 L 131.7 5.6 Q 131.7 8.3 134.3 8.3 L 134.3 8.3 L 134.3 8.3 Q 138.6 8.3 141 -1.8 L 141 -1.8 L 141 -1.8 Q 141.7 -4.5 142.3 -7.3 L 142.3 -7.3 L 142.3 -7.3 Q 139.4 -3.8 132.9 -3.8 L 132.9 -3.8 L 132.9 -3.8 Q 128.3 -3.8 125.7 -6 L 125.7 -6 L 125.7 -6 Q 123.1 -8.1 123.1 -13.3 L 123.1 -13.3 L 123.1 -13.3 Q 123.1 -16.4 124.2 -20.1 L 124.2 -20.1 L 124.2 -20.1 Q 125.3 -23.7 127.4 -26.8 Z M 135.7 -13.1 L 135.7 -13.1 L 135.7 -13.1 Q 135.7 -8.7 138 -8.7 L 138 -8.7 L 138 -8.7 Q 139.5 -8.7 141 -10.4 L 141 -10.4 L 141 -10.4 Q 142.1 -11.7 142.6 -13.7 L 142.6 -13.7 L 145.9 -30.1 L 145.9 -30.1 Q 145.5 -30.2 145.2 -30.3 L 145.2 -30.3 L 145.2 -30.3 Q 144.6 -30.6 143.7 -30.6 L 143.7 -30.6 L 143.7 -30.6 Q 139.8 -30.6 137.5 -24.2 L 137.5 -24.2 L 137.5 -24.2 Q 135.7 -19.2 135.7 -13.1 Z M 187.1 -10.8 L 187.1 -10.8 L 187.1 -10.8 Q 188.7 -9.7 188.7 -7.3 L 188.7 -7.3 L 188.7 -7.3 Q 188.7 -4.9 187.5 -3.4 L 187.5 -3.4 L 187.5 -3.4 Q 186.3 -1.9 184.3 -0.8 L 184.3 -0.8 L 184.3 -0.8 Q 180.2 1.3 175.8 1.3 L 175.8 1.3 L 175.8 1.3 Q 171.4 1.3 168.8 0.3 L 168.8 0.3 L 168.8 0.3 Q 166.2 -0.6 164.5 -2.4 L 164.5 -2.4 L 164.5 -2.4 Q 161.1 -5.8 161.1 -12 L 161.1 -12 L 161.1 -12 Q 161.1 -21.7 166.3 -27.6 L 166.3 -27.6 L 166.3 -27.6 Q 172 -33.9 181.8 -33.9 L 181.8 -33.9 L 181.8 -33.9 Q 187.8 -33.9 190.8 -31.4 L 190.8 -31.4 L 190.8 -31.4 Q 193.1 -29.4 193.1 -26.3 L 193.1 -26.3 L 193.1 -26.3 Q 193.1 -15 173.6 -15 L 173.6 -15 L 173.6 -15 Q 173.4 -13.4 173.4 -12 L 173.4 -12 L 173.4 -12 Q 173.4 -9 174.7 -7.9 L 174.7 -7.9 L 174.7 -7.9 Q 176 -6.8 178.4 -6.8 L 178.4 -6.8 L 178.4 -6.8 Q 180.9 -6.8 183.5 -7.9 L 183.5 -7.9 L 183.5 -7.9 Q 186.1 -9 187.1 -10.8 Z M 174.1 -17.8 L 174.1 -17.8 L 174.1 -17.8 Q 178.6 -17.8 181.3 -20.6 L 181.3 -20.6 L 181.3 -20.6 Q 183.9 -23.3 183.9 -27.6 L 183.9 -27.6 L 183.9 -27.6 Q 183.9 -29.1 183.3 -29.9 L 183.3 -29.9 L 183.3 -29.9 Q 182.8 -30.7 181.7 -30.7 L 181.7 -30.7 L 181.7 -30.7 Q 180.6 -30.7 179.7 -30.2 L 179.7 -30.2 L 179.7 -30.2 Q 178.8 -29.8 177.8 -28.4 L 177.8 -28.4 L 177.8 -28.4 Q 175.4 -25.2 174.1 -17.8 Z M 214.4 -22.5 L 214.4 -22.5 L 214.4 -22.5 Q 215.3 -24.8 215.3 -26.9 L 215.3 -26.9 L 215.3 -26.9 Q 215.3 -30.7 212.2 -30.7 L 212.2 -30.7 L 212.2 -30.7 Q 210.6 -30.7 209.3 -29.2 L 209.3 -29.2 L 209.3 -29.2 Q 208 -27.8 208 -26 L 208 -26 L 208 -26 Q 208 -24.7 209 -23.7 L 209 -23.7 L 209 -23.7 Q 210.5 -22.3 214.3 -20 L 214.3 -20 L 214.3 -20 Q 218.1 -17.7 219.5 -15.8 L 219.5 -15.8 L 219.5 -15.8 Q 220.9 -13.9 220.9 -11.3 L 220.9 -11.3 L 220.9 -11.3 Q 220.9 -8.7 219.7 -6.3 L 219.7 -6.3 L 219.7 -6.3 Q 218.4 -4 216.2 -2.3 L 216.2 -2.3 L 216.2 -2.3 Q 211.4 1.3 203.7 1.3 L 203.7 1.3 L 203.7 1.3 Q 199.6 1.3 196.3 -0.9 L 196.3 -0.9 L 196.3 -0.9 Q 193.2 -3 193.2 -5.5 L 193.2 -5.5 L 193.2 -5.5 Q 193.2 -8 195 -9.5 L 195 -9.5 L 195 -9.5 Q 196.8 -10.9 199.5 -10.9 L 199.5 -10.9 L 199.5 -10.9 Q 202.2 -10.9 203.8 -9.9 L 203.8 -9.9 L 203.8 -9.9 Q 203 -7.8 203 -6.4 L 203 -6.4 L 203 -6.4 Q 203 -2.2 206.6 -2.2 L 206.6 -2.2 L 206.6 -2.2 Q 208.1 -2.2 209.2 -3.1 L 209.2 -3.1 L 209.2 -3.1 Q 210.2 -4.1 210.2 -5.8 L 210.2 -5.8 L 210.2 -5.8 Q 210.2 -9 204.7 -12.5 L 204.7 -12.5 L 204.7 -12.5 Q 200.2 -15.4 199.2 -16.6 L 199.2 -16.6 L 199.2 -16.6 Q 197.4 -18.6 197.4 -21.2 L 197.4 -21.2 L 197.4 -21.2 Q 197.4 -23.7 198.7 -26.2 L 198.7 -26.2 L 198.7 -26.2 Q 199.9 -28.6 202.1 -30.3 L 202.1 -30.3 L 202.1 -30.3 Q 206.8 -33.9 214.9 -33.9 L 214.9 -33.9 L 214.9 -33.9 Q 219.1 -33.9 221.5 -32.3 L 221.5 -32.3 L 221.5 -32.3 Q 224 -30.6 224 -27.8 L 224 -27.8 L 224 -27.8 Q 224 -25 222.3 -23.4 L 222.3 -23.4 L 222.3 -23.4 Q 220.6 -21.8 217.5 -21.8 L 217.5 -21.8 L 217.5 -21.8 Q 215.4 -21.8 214.4 -22.5 Z M 265.5 -20.6 L 278.4 -21.8 L 278.4 -21.8 Q 273.8 -11.7 273.8 0.1 L 273.8 0.1 L 273.8 0.1 Q 272.1 1.3 269.5 1.3 L 269.5 1.3 L 269.5 1.3 Q 267 1.3 265.4 0.1 L 265.4 0.1 L 265.4 0.1 Q 263.8 -1.1 263.5 -2.3 L 263.5 -2.3 L 263.5 -2.3 Q 261.9 -0.6 259.3 0.3 L 259.3 0.3 L 259.3 0.3 Q 256.7 1.3 253.9 1.3 L 253.9 1.3 L 253.9 1.3 Q 251.2 1.3 248.8 0.4 L 248.8 0.4 L 248.8 0.4 Q 246.4 -0.5 244.5 -2.5 L 244.5 -2.5 L 244.5 -2.5 Q 240.4 -6.8 240.4 -15.1 L 240.4 -15.1 L 240.4 -15.1 Q 240.4 -27.9 247.3 -35.6 L 247.3 -35.6 L 247.3 -35.6 Q 254.3 -43.5 266.8 -43.5 L 266.8 -43.5 L 266.8 -43.5 Q 275.5 -43.5 278.5 -39 L 278.5 -39 L 278.5 -39 Q 279.5 -37.6 279.5 -35.9 L 279.5 -35.9 L 279.5 -35.9 Q 279.5 -34.2 278.8 -32.8 L 278.8 -32.8 L 278.8 -32.8 Q 278 -31.4 276.9 -30.2 L 276.9 -30.2 L 276.9 -30.2 Q 274.1 -27.6 270.7 -27.6 L 270.7 -27.6 L 270.7 -27.6 Q 269.4 -27.6 268.1 -28.1 L 268.1 -28.1 L 268.1 -28.1 Q 268.4 -30 268.4 -32.3 L 268.4 -32.3 L 268.4 -32.3 Q 268.4 -34.5 268.2 -35.5 L 268.2 -35.5 L 268.2 -35.5 Q 268 -36.5 267.6 -37.4 L 267.6 -37.4 L 267.6 -37.4 Q 266.8 -39.1 265 -39.1 L 265 -39.1 L 265 -39.1 Q 263.2 -39.1 261.1 -37.1 L 261.1 -37.1 L 261.1 -37.1 Q 259.1 -35.2 257.5 -32 L 257.5 -32 L 257.5 -32 Q 254 -24.8 254 -16.2 L 254 -16.2 L 254 -16.2 Q 254 -12.2 255.6 -9.4 L 255.6 -9.4 L 255.6 -9.4 Q 257.2 -6.3 260.2 -6.3 L 260.2 -6.3 L 260.2 -6.3 Q 261.2 -6.3 262.1 -6.8 L 262.1 -6.8 L 262.1 -6.8 Q 263 -7.4 263.4 -7.7 L 263.4 -7.7 L 265.5 -20.6 Z M 284.3 -1.9 L 284.3 -1.9 L 284.3 -1.9 Q 282.8 -3.6 282.1 -6.2 L 282.1 -6.2 L 282.1 -6.2 Q 281.5 -8.8 281.5 -13.1 L 281.5 -13.1 L 281.5 -13.1 Q 281.5 -17.4 282.9 -21.3 L 282.9 -21.3 L 282.9 -21.3 Q 284.4 -25.2 287.1 -28 L 287.1 -28 L 287.1 -28 Q 292.6 -33.9 301.7 -33.9 L 301.7 -33.9 L 301.7 -33.9 Q 305 -33.9 307.3 -32.8 L 307.3 -32.8 L 318.3 -33.9 L 313.5 -9 L 313.5 -9 Q 313.3 -8.2 313.3 -6.8 L 313.3 -6.8 L 313.3 -6.8 Q 313.3 -5.4 314.2 -4.5 L 314.2 -4.5 L 314.2 -4.5 Q 315.1 -3.6 316.4 -3.5 L 316.4 -3.5 L 316.4 -3.5 Q 315.7 -1.3 313.4 0 L 313.4 0 L 313.4 0 Q 311 1.3 308.4 1.3 L 308.4 1.3 L 308.4 1.3 Q 305.8 1.3 304 0.3 L 304 0.3 L 304 0.3 Q 302.3 -0.7 301.8 -2.4 L 301.8 -2.4 L 301.8 -2.4 Q 300.7 -0.8 298.6 0.3 L 298.6 0.3 L 298.6 0.3 Q 296.4 1.3 293.5 1.3 L 293.5 1.3 L 293.5 1.3 Q 290.6 1.3 288.2 0.5 L 288.2 0.5 L 288.2 0.5 Q 285.8 -0.3 284.3 -1.9 Z M 297.8 -27.9 L 297.8 -27.9 L 297.8 -27.9 Q 297.1 -26.8 296.4 -24.8 L 296.4 -24.8 L 296.4 -24.8 Q 295.8 -22.9 294.8 -17.6 L 294.8 -17.6 L 294.8 -17.6 Q 293.7 -12.4 293.7 -8.7 L 293.7 -8.7 L 293.7 -8.7 Q 293.7 -5 294.3 -3.9 L 294.3 -3.9 L 294.3 -3.9 Q 294.9 -2.8 295.9 -2.8 L 295.9 -2.8 L 295.9 -2.8 Q 297.9 -2.8 299.4 -4.8 L 299.4 -4.8 L 299.4 -4.8 Q 300.9 -6.7 301.5 -10.2 L 301.5 -10.2 L 304.9 -28.9 L 304.9 -28.9 Q 303.6 -30.1 302 -30.1 L 302 -30.1 L 302 -30.1 Q 300.4 -30.1 299.5 -29.6 L 299.5 -29.6 L 299.5 -29.6 Q 298.6 -29.1 297.8 -27.9 Z M 337 -3.5 L 337 -3.5 L 337 -3.5 Q 335 1.3 328.7 1.3 L 328.7 1.3 L 328.7 1.3 Q 325.5 1.3 323.5 -1 L 323.5 -1 L 323.5 -1 Q 321.8 -2.8 321.8 -4.9 L 321.8 -4.9 L 321.8 -4.9 Q 321.8 -9.7 324 -20.2 L 324 -20.2 L 328.7 -44.8 L 341.7 -46.1 L 335.5 -13.7 L 335.5 -13.7 Q 334.4 -9 334.4 -7.3 L 334.4 -7.3 L 334.4 -7.3 Q 334.4 -3.6 337 -3.5 Z M 357.8 -3.5 L 357.8 -3.5 L 357.8 -3.5 Q 355.8 1.3 349.4 1.3 L 349.4 1.3 L 349.4 1.3 Q 346.2 1.3 344.2 -1 L 344.2 -1 L 344.2 -1 Q 342.5 -2.8 342.5 -4.9 L 342.5 -4.9 L 342.5 -4.9 Q 342.5 -9.7 344.8 -20.2 L 344.8 -20.2 L 349.4 -44.8 L 362.4 -46.1 L 356.2 -13.7 L 356.2 -13.7 Q 355.1 -9 355.1 -7.3 L 355.1 -7.3 L 355.1 -7.3 Q 355.1 -3.6 357.8 -3.5 Z M 389.1 -10.8 L 389.1 -10.8 L 389.1 -10.8 Q 390.7 -9.7 390.7 -7.3 L 390.7 -7.3 L 390.7 -7.3 Q 390.7 -4.9 389.5 -3.4 L 389.5 -3.4 L 389.5 -3.4 Q 388.3 -1.9 386.3 -0.8 L 386.3 -0.8 L 386.3 -0.8 Q 382.2 1.3 377.8 1.3 L 377.8 1.3 L 377.8 1.3 Q 373.4 1.3 370.8 0.3 L 370.8 0.3 L 370.8 0.3 Q 368.2 -0.6 366.5 -2.4 L 366.5 -2.4 L 366.5 -2.4 Q 363.1 -5.8 363.1 -12 L 363.1 -12 L 363.1 -12 Q 363.1 -21.7 368.3 -27.6 L 368.3 -27.6 L 368.3 -27.6 Q 373.9 -33.9 383.7 -33.9 L 383.7 -33.9 L 383.7 -33.9 Q 389.8 -33.9 392.8 -31.4 L 392.8 -31.4 L 392.8 -31.4 Q 395.1 -29.4 395.1 -26.3 L 395.1 -26.3 L 395.1 -26.3 Q 395.1 -15 375.6 -15 L 375.6 -15 L 375.6 -15 Q 375.4 -13.4 375.4 -12 L 375.4 -12 L 375.4 -12 Q 375.4 -9 376.7 -7.9 L 376.7 -7.9 L 376.7 -7.9 Q 378 -6.8 380.4 -6.8 L 380.4 -6.8 L 380.4 -6.8 Q 382.9 -6.8 385.4 -7.9 L 385.4 -7.9 L 385.4 -7.9 Q 388 -9 389.1 -10.8 Z M 376.1 -17.8 L 376.1 -17.8 L 376.1 -17.8 Q 380.6 -17.8 383.2 -20.6 L 383.2 -20.6 L 383.2 -20.6 Q 385.9 -23.3 385.9 -27.6 L 385.9 -27.6 L 385.9 -27.6 Q 385.9 -29.1 385.3 -29.9 L 385.3 -29.9 L 385.3 -29.9 Q 384.8 -30.7 383.7 -30.7 L 383.7 -30.7 L 383.7 -30.7 Q 382.6 -30.7 381.7 -30.2 L 381.7 -30.2 L 381.7 -30.2 Q 380.7 -29.8 379.8 -28.4 L 379.8 -28.4 L 379.8 -28.4 Q 377.4 -25.2 376.1 -17.8 Z M 417.3 -18 L 417.3 -18 L 417.3 -18 Q 419.6 -22.1 419.6 -26.2 L 419.6 -26.2 L 419.6 -26.2 Q 419.6 -29 417.6 -29 L 417.6 -29 L 417.6 -29 Q 416.1 -29 414.5 -26.4 L 414.5 -26.4 L 414.5 -26.4 Q 412.8 -23.7 412.3 -20.4 L 412.3 -20.4 L 409 0 L 395.7 1.3 L 402.2 -32.6 L 412.8 -33.9 L 411.6 -27.5 L 411.6 -27.5 Q 414.8 -33.9 421.8 -33.9 L 421.8 -33.9 L 421.8 -33.9 Q 425.5 -33.9 427.6 -32 L 427.6 -32 L 427.6 -32 Q 429.6 -30.1 429.6 -26.1 L 429.6 -26.1 L 429.6 -26.1 Q 429.6 -22.2 427 -19.7 L 427 -19.7 L 427 -19.7 Q 424.4 -17.2 420 -17.2 L 420 -17.2 L 420 -17.2 Q 418.1 -17.2 417.3 -18 Z M 450.9 -7.2 L 450.9 -7.2 L 450.9 -7.2 Q 447.6 -3.8 441.5 -3.8 L 441.5 -3.8 L 441.5 -3.8 Q 433.9 -3.8 432.3 -9.3 L 432.3 -9.3 L 432.3 -9.3 Q 431.8 -11 431.8 -12.9 L 431.8 -12.9 L 431.8 -12.9 Q 431.8 -14.7 432.2 -16.6 L 432.2 -16.6 L 435.2 -32.6 L 448.2 -33.9 L 444.7 -15.3 L 444.7 -15.3 Q 444.5 -14.5 444.4 -13.6 L 444.4 -13.6 L 444.4 -13.6 Q 444.2 -12.7 444.2 -11.7 L 444.2 -11.7 L 444.2 -11.7 Q 444.2 -10.8 444.5 -10.2 L 444.5 -10.2 L 444.5 -10.2 Q 444.8 -9.6 445.3 -9.2 L 445.3 -9.2 L 445.3 -9.2 Q 446 -8.7 447.4 -8.7 L 447.4 -8.7 L 447.4 -8.7 Q 448.8 -8.7 449.9 -10.4 L 449.9 -10.4 L 449.9 -10.4 Q 451.1 -12 451.7 -14.9 L 451.7 -14.9 L 455.2 -32.6 L 467.8 -33.9 L 463 -8.8 L 463 -8.8 Q 460.7 3.5 455.8 8.4 L 455.8 8.4 L 455.8 8.4 Q 453.3 10.9 450.1 11.9 L 450.1 11.9 L 450.1 11.9 Q 446.9 12.9 442.7 12.9 L 442.7 12.9 L 442.7 12.9 Q 436 12.9 432.1 10.8 L 432.1 10.8 L 432.1 10.8 Q 428.3 8.6 428.3 5.1 L 428.3 5.1 L 428.3 5.1 Q 428.3 2.5 430.3 1 L 430.3 1 L 430.3 1 Q 432.3 -0.5 435.3 -0.5 L 435.3 -0.5 L 435.3 -0.5 Q 438 -0.5 440.1 0.6 L 440.1 0.6 L 440.1 0.6 Q 441.3 1.3 441.9 2.2 L 441.9 2.2 L 441.9 2.2 Q 440.4 3.5 440.4 5.6 L 440.4 5.6 L 440.4 5.6 Q 440.4 8.4 442.9 8.4 L 442.9 8.4 L 442.9 8.4 Q 447.2 8.4 449.6 -1.3 L 449.6 -1.3 L 449.6 -1.3 Q 450.3 -4.2 450.9 -7.2 Z" fill="url(#editing-shiny-gradient2)"></path></g></g><style>text {
  font-size: 64px;
  font-family: Arial Black;
  dominant-baseline: central;
  text-anchor: middle;
}</style></svg>